<svg version="1.1" xmlns="http://www.w3.org/2000/svg" xmlns:xlink="http://www.w3.org/1999/xlink" width="178.18468" height="180.81865" viewBox="0,0,178.18468,180.81865"><g transform="translate(-150.90766,-89.59068)"><g data-paper-data="{&quot;isPaintingLayer&quot;:true}" fill-rule="nonzero" stroke-linecap="butt" stroke-linejoin="miter" stroke-miterlimit="10" stroke-dasharray="" stroke-dashoffset="0" style="mix-blend-mode: normal"><path d="M326.59234,180c0,48.55098 -38.76871,87.90932 -86.59234,87.90932c-47.82363,0 -86.59234,-39.35834 -86.59234,-87.90932c0,-48.55098 38.76871,-87.90933 86.59234,-87.90933c47.82363,0 86.59234,39.35834 86.59234,87.90933z" fill="#daf89b" stroke="#6ab3b3" stroke-width="5"/><path d="M302.75,180c0,34.37973 -28.09413,62.25 -62.75,62.25c-34.65587,0 -62.75,-27.87027 -62.75,-62.25c0,-34.37973 28.09413,-62.25 62.75,-62.25c34.65587,0 62.75,27.87027 62.75,62.25z" fill="#6ab3b3" stroke="none" stroke-width="0"/><path d="M284.10321,213.03452c0,21.74121 -26.01636,29.97028 -46.51521,29.97028c-20.49885,0 -40.71458,-8.72804 -40.71458,-30.46924c0,-21.74121 24.21573,-60.91189 44.71458,-60.91189c20.49885,0 42.51521,39.66965 42.51521,61.41085z" fill="#daf89d" stroke="none" stroke-width="0"/><path d="M264.27344,140.77795c0,11.59798 -10.18552,21 -22.75,21c-12.56448,0 -22.75,-9.40202 -22.75,-21c0,-11.59798 10.18552,-21 22.75,-21c12.56448,0 22.75,9.40202 22.75,21z" fill="#daf89d" stroke="none" stroke-width="0"/></g></g></svg>