<svg version="1.1" xmlns="http://www.w3.org/2000/svg" xmlns:xlink="http://www.w3.org/1999/xlink" width="173.5" height="171.71739" viewBox="0,0,173.5,171.71739"><g transform="translate(-41.77344,-103.22705)"><g data-paper-data="{&quot;isPaintingLayer&quot;:true}" fill-rule="nonzero" stroke-linejoin="miter" stroke-miterlimit="10" stroke-dasharray="" stroke-dashoffset="0" style="mix-blend-mode: normal"><path d="M215.27344,189.08575c0,47.41845 -38.8393,85.8587 -86.75,85.8587c-47.9107,0 -86.75,-38.44025 -86.75,-85.8587c0,-47.41845 38.8393,-85.8587 86.75,-85.8587c47.9107,0 86.75,38.44025 86.75,85.8587z" fill="#559ea1" stroke="none" stroke-width="0" stroke-linecap="butt"/><path d="M212.27344,189c0,46.11577 -37.49615,83.5 -83.75,83.5c-46.25385,0 -83.75,-37.38423 -83.75,-83.5c0,-46.11577 37.49615,-83.5 83.75,-83.5c46.25385,0 83.75,37.38423 83.75,83.5z" fill="#daf89d" stroke="none" stroke-width="0" stroke-linecap="butt"/><path d="M189.77344,188c0,34.5178 -27.75834,62.5 -62,62.5c-34.24166,0 -62,-27.9822 -62,-62.5c0,-34.5178 27.75834,-62.5 62,-62.5c34.24166,0 62,27.9822 62,62.5z" fill="#559ea1" stroke="none" stroke-width="0" stroke-linecap="butt"/><path d="M109.80938,198.58809l-10.4,17l19.36406,0.41191v7.5h-32.5l16.93594,-29.11192l-3.6,-2.2l13.2,-7.1l0.8,15.1l-4.8,-2.6" fill="#daf89d" stroke="#daf89d" stroke-width="2" stroke-linecap="round"/><path d="M137.18495,178.57619l-8.86975,-17.84622l-10.64331,16.18198l-6.35234,-3.98719l17.27782,-27.52684l15.65363,29.82103l3.77721,-1.87955l-1.0039,14.95467l-13.21469,-7.34996l4.75395,-2.68328" fill="#daf89d" stroke="#daf89d" stroke-width="2" stroke-linecap="round"/><path d="M138.21128,214.83412l19.92782,0.20503l-9.58121,-16.83262l6.43768,-3.84789l16.67421,27.8966l-33.67745,0.39886l-0.0414,4.2188l-12.86662,-7.68764l12.55076,-8.43378l0.23092,5.45405" fill="#daf89d" stroke="#daf89d" stroke-width="2" stroke-linecap="round"/></g></g></svg>