<svg version="1.1" xmlns="http://www.w3.org/2000/svg" xmlns:xlink="http://www.w3.org/1999/xlink" width="137" height="145" viewBox="0,0,137,145"><defs><clipPath id="clip-1"><path d="M169.01377,224.62642v-145h137v145z" fill="none" stroke="none" stroke-width="1" stroke-linecap="butt"/></clipPath></defs><g transform="translate(-169.01377,-79.62642)"><g clip-path="url(#clip-1)" data-paper-data="{&quot;isPaintingLayer&quot;:true}" fill-rule="nonzero" stroke-linejoin="miter" stroke-miterlimit="10" stroke-dasharray="" stroke-dashoffset="0" style="mix-blend-mode: normal"><path d="M306.01357,155.25944c0,38.24142 -30.668,69.24301 -68.5,69.24301c-37.8313,0 -68.4998,-31.00159 -68.4998,-69.24301c0,-38.24242 30.6685,-69.24401 68.4998,-69.24401c37.832,0 68.5,31.00159 68.5,69.24401z" fill="#559ea1" stroke="none" stroke-width="1" stroke-linecap="butt"/><path d="M301.56459,154.82135c0,36.84042 -29.002,66.70495 -64.777,66.70495c-35.7755,0 -64.7773,-29.86453 -64.7773,-66.70495c0,-36.84042 29.0018,-66.70495 64.7773,-66.70495c35.775,0 64.777,29.86454 64.777,66.70496z" fill="#dbf6a4" stroke="#559ea1" stroke-width="4.96377" stroke-linecap="butt"/><path d="M285.39057,154.16553c0,27.51214 -21.445,49.81571 -47.9,49.81571c-26.4547,0 -47.9004,-22.30357 -47.9004,-49.81571c0,-27.51214 21.4457,-49.8157 47.9004,-49.8157c26.455,0 47.9,22.30356 47.9,49.8157z" fill="#559ea1" stroke="none" stroke-width="1" stroke-linecap="butt"/><path d="M256.87257,30.72058c-0.548,0 -0.993,-0.44599 -0.993,-0.99626c0,-0.55026 0.445,-0.99635 0.993,-0.99635c0.548,0 0.993,0.44609 0.993,0.99635c0,0.55026 -0.445,0.99626 -0.993,0.99626z" fill="#d9f8a1" stroke="#5aa0a1" stroke-width="0.49638" stroke-linecap="butt"/><path d="M465.43917,217.46611c0,36.84042 -29.002,66.70495 -64.777,66.70495c-35.7755,0 -64.7773,-29.86453 -64.7773,-66.70495c0,-36.84042 29.0018,-66.70495 64.7773,-66.70495c35.775,0 64.777,29.86453 64.777,66.70495z" fill="#dbf6a4" stroke="#559ea1" stroke-width="4.96377" stroke-linecap="butt"/><path d="M201.19255,121.82957l72.51648,64.63624" fill="none" stroke="#dcf79d" stroke-width="20" stroke-linecap="round"/><path d="M202.41623,188.5111l70.70843,-67.20223" fill="none" stroke="#dcf79d" stroke-width="20" stroke-linecap="round"/></g></g></svg>