<svg version="1.1" xmlns="http://www.w3.org/2000/svg" xmlns:xlink="http://www.w3.org/1999/xlink" width="137" height="145" viewBox="0,0,137,145"><defs><clipPath id="clip-1"><path d="M171.5,252.5v-145h137v145z" fill="none" stroke="none" stroke-width="1" stroke-linecap="butt"/></clipPath></defs><g transform="translate(-171.5,-107.5)"><g clip-path="url(#clip-1)" data-paper-data="{&quot;isPaintingLayer&quot;:true}" fill-rule="nonzero" stroke-linejoin="miter" stroke-miterlimit="10" stroke-dasharray="" stroke-dashoffset="0" style="mix-blend-mode: normal"><path d="M303.67337,182.22296c0,37.10109 -28.9175,67.17692 -64.58827,67.17692c-35.67127,0 -64.58857,-30.07583 -64.58857,-67.17692c0,-37.10109 28.91731,-67.17692 64.58857,-67.17692c35.67077,0 64.58827,30.07585 64.58827,67.17693z" fill="#dbf6a4" stroke="#559ea1" stroke-width="3" stroke-linecap="butt"/><path d="M287.8768,182.03911c0,27.51214 -21.445,49.81571 -47.9,49.81571c-26.4547,0 -47.9004,-22.30357 -47.9004,-49.81571c0,-27.51214 21.4457,-49.8157 47.9004,-49.8157c26.455,0 47.9,22.30356 47.9,49.8157z" fill="#559ea1" stroke="none" stroke-width="1" stroke-linecap="butt"/><path d="M259.3588,58.59416c-0.548,0 -0.993,-0.44599 -0.993,-0.99626c0,-0.55026 0.445,-0.99635 0.993,-0.99635c0.548,0 0.993,0.44609 0.993,0.99635c0,0.55026 -0.445,0.99626 -0.993,0.99626z" fill="#d9f8a1" stroke="#5aa0a1" stroke-width="0.49638" stroke-linecap="butt"/><path d="M204.13592,226.05544l40.45398,-48.70989" fill="none" stroke="#dbf6a4" stroke-width="13" stroke-linecap="round"/><path d="M271.42162,170.3516c0,12.76692 -10.26617,23.11656 -22.93014,23.11656c-12.66396,0 -22.93014,-10.34964 -22.93014,-23.11656c0,-12.76692 10.26617,-23.11656 22.93014,-23.11656c12.66396,0 22.93014,10.34964 22.93014,23.11656z" fill="#559ea1" stroke="#dbf6a4" stroke-width="13" stroke-linecap="butt"/></g></g></svg>