<svg width="137" height="145" xmlns="http://www.w3.org/2000/svg" xmlns:xlink="http://www.w3.org/1999/xlink" overflow="hidden"><defs><clipPath id="clip0"><rect x="0" y="0" width="137" height="145"/></clipPath></defs><g clip-path="url(#clip0)"><path d="M178.742 174.725C178.742 212.83 148.074 243.721 110.242 243.721 72.4107 243.721 41.7422 212.83 41.7422 174.725 41.7422 136.619 72.4107 105.728 110.242 105.728 148.074 105.728 178.742 136.619 178.742 174.725Z" fill="#559EA1" fill-rule="nonzero" fill-opacity="1" transform="matrix(1 0 0 1.00358 -41.7422 -99.7175)"/><path d="M174.996 173.588C174.996 210.297 145.994 240.055 110.219 240.055 74.4435 240.055 45.4417 210.297 45.4417 173.588 45.4417 136.879 74.4435 107.121 110.219 107.121 145.994 107.121 174.996 136.879 174.996 173.588Z" stroke="#559EA1" stroke-width="4.96377" stroke-linecap="butt" stroke-linejoin="miter" stroke-miterlimit="10" stroke-opacity="1" fill="#DBF6A4" fill-rule="nonzero" fill-opacity="1" transform="matrix(1 0 0 1.00358 -41.7422 -99.7175)"/><path d="M158.119 173.635C158.119 201.049 136.674 223.273 110.219 223.273 83.7643 223.273 62.3186 201.049 62.3186 173.635 62.3186 146.221 83.7643 123.997 110.219 123.997 136.674 123.997 158.119 146.221 158.119 173.635Z" fill="#559EA1" fill-rule="nonzero" fill-opacity="1" transform="matrix(1 0 0 1.00358 -41.7422 -99.7175)"/><path d="M129.601 50.6304C129.053 50.6304 128.608 50.186 128.608 49.6377 128.608 49.0894 129.053 48.6449 129.601 48.6449 130.149 48.6449 130.594 49.0894 130.594 49.6377 130.594 50.186 130.149 50.6304 129.601 50.6304Z" stroke="#5AA0A1" stroke-width="0.496377" stroke-linecap="butt" stroke-linejoin="miter" stroke-miterlimit="10" stroke-opacity="1" fill="#D9F8A1" fill-rule="nonzero" fill-opacity="1" transform="matrix(1 0 0 1.00358 -41.7422 -99.7175)"/><path d="M65.2968 198.454C65.2968 198.454 79.149 199.037 88.5465 197.831 98.2287 196.587 108.482 194.031 112.22 192.808 117.624 191.041 123.107 187.658 127.594 184.681 135.066 179.724 135.405 171.642 135.158 168.641 134.605 161.891 127.108 156.052 125.141 154.823 121.296 152.42 109.971 150.305 109.971 150.305L109.971 157.255 86.1446 148.32 107.985 129.954 108.978 138.889C108.978 138.889 123.64 141.192 127.635 142.352 130.327 143.133 139.567 147.158 143.836 151.69 145.781 153.754 151.404 162.697 151.508 170.163 151.563 174.107 151.717 183.984 148.139 190.483 145.434 195.394 137.997 204.805 128.917 210.986 117.578 218.706 101.036 224.762 101.036 224.762" stroke="#DCF79D" stroke-width="2.97826" stroke-linecap="round" stroke-linejoin="miter" stroke-miterlimit="10" stroke-opacity="1" fill="none" fill-rule="nonzero" transform="matrix(1 0 0 1.00358 -41.7422 -99.7175)"/><path d="M121.884 188.775C125.585 188.775 128.585 191.775 128.585 195.476 128.585 195.919 128.542 196.353 128.459 196.773 128.744 196.736 129.035 196.717 129.329 196.717 133.03 196.717 136.031 199.717 136.031 203.418 136.031 207.119 133.03 210.119 129.329 210.119 127.947 210.119 126.662 209.7 125.595 208.983 125.603 209.112 125.607 209.243 125.607 209.374 125.607 213.075 122.606 216.075 118.906 216.075 118.633 216.075 118.363 216.059 118.099 216.027 117.096 218.322 114.844 219.946 112.202 220.042 110.974 221.559 109.096 222.528 106.992 222.528 106.451 222.528 105.924 222.464 105.419 222.342 104.604 222.928 103.605 223.273 102.525 223.273 101.996 223.273 101.486 223.19 101.008 223.037 100.621 223.162 100.363 223.205 100.363 223.205L96.3705 223.765C94.4435 223.294 92.4074 223.146 90.5894 222.352 88.6904 221.523 87.1143 220.094 85.3768 218.964 85.3768 218.964 84.1261 218.131 83.4601 216.693 82.321 216.452 81.2225 216.116 80.1877 215.658 78.7487 215.021 78.0661 213.333 76.9859 212.188 75.4422 210.553 73.5171 209.301 71.6008 208.123L71.1728 208.127C71.1728 208.127 70.0962 207.768 69.1441 206.879 69.0211 206.888 68.8968 206.892 68.7715 206.892 66.03 206.892 63.8077 204.67 63.8077 201.929 63.8077 199.187 66.03 196.965 68.7715 196.965 70.1641 196.965 71.4227 197.538 72.3241 198.462 73.4415 198.418 74.3121 198.709 74.3121 198.709L76.7392 199.657C77.7467 199.051 78.9267 198.702 80.1881 198.702 81.4349 198.702 82.6022 199.043 83.602 199.636 85.3365 198.702 87.1374 198.702 87.1374 198.702 89.0931 198.748 91.0067 198.122 92.9376 197.809 96.4143 197.244 99.8258 196.899 103.234 196.503 104.212 194.012 106.637 192.249 109.474 192.249 111.296 192.249 112.948 192.976 114.156 194.156 114.52 194.019 114.938 193.889 115.395 193.795 116.141 190.908 118.763 188.775 121.884 188.775ZM122.628 203.418C122.628 203.326 122.63 203.234 122.634 203.143 122.548 203.313 122.457 203.476 122.362 203.632 122.456 203.689 122.549 203.748 122.64 203.809 122.632 203.68 122.628 203.549 122.628 203.418Z" fill="#DBF6A4" fill-rule="nonzero" fill-opacity="1" transform="matrix(1 0 0 1.00358 -41.7422 -99.7175)"/><path d="M139.257 176.862C142.958 176.862 145.958 179.862 145.958 183.563 145.958 186.335 144.274 188.714 141.874 189.733 141.421 190.419 140.846 191.016 140.18 191.494 141.004 192.607 141.491 193.984 141.491 195.476 141.491 199.177 138.49 202.177 134.79 202.177 133.614 202.177 132.509 201.874 131.548 201.342 131.878 202.134 132.059 203.003 132.059 203.914 132.059 204.081 132.053 204.247 132.041 204.41 132.053 204.574 132.059 204.74 132.059 204.907 132.059 208.608 129.059 211.608 125.358 211.608 121.658 211.608 118.657 208.608 118.657 204.907 118.657 204.74 118.663 204.574 118.675 204.41 118.667 204.3 118.662 204.19 118.659 204.078 117.825 204.451 116.9 204.659 115.927 204.659 112.226 204.659 109.226 201.658 109.226 197.958 109.226 194.257 112.226 191.256 115.927 191.256 119.573 191.256 122.539 194.168 122.626 197.793 123.461 197.42 124.385 197.213 125.358 197.213 125.736 197.213 126.106 197.244 126.466 197.304 124.468 196.144 123.125 193.981 123.125 191.505 123.125 187.848 126.053 184.876 129.692 184.805 130.109 182.577 131.628 180.737 133.662 179.874 134.861 178.059 136.919 176.862 139.257 176.862Z" fill="#DBF6A4" fill-rule="nonzero" fill-opacity="1" transform="matrix(1 0 0 1.00358 -41.7422 -99.7175)"/><path d="M137.595 183.066C137.595 179.365 140.595 176.365 144.296 176.365 147.997 176.365 150.997 179.365 150.997 183.066 150.997 185.737 149.435 188.042 147.175 189.119 147.294 189.619 147.357 190.141 147.357 190.677 147.357 194.015 144.917 196.783 141.723 197.294 141.552 200.842 138.621 203.666 135.03 203.666 131.329 203.666 128.329 200.666 128.329 196.965 128.329 193.627 130.769 190.86 133.962 190.348 134.085 187.818 135.61 185.657 137.777 184.624 137.658 184.124 137.595 183.603 137.595 183.066Z" fill="#DBF6A4" fill-rule="nonzero" fill-opacity="1" transform="matrix(1 0 0 1.00358 -41.7422 -99.7175)"/><path d="M94.658 152.125C93.2704 152.125 92.0727 151.312 91.5159 150.136 91.4605 150.139 91.4048 150.14 91.3489 150.14 89.4299 150.14 87.8742 148.584 87.8742 146.665 87.8742 144.746 89.4299 143.191 91.3489 143.191 91.9992 143.191 92.6078 143.369 93.1283 143.68 93.7701 141.164 95.836 139.217 98.4169 138.749 99.2096 136.886 100.821 135.456 102.8 134.91 102.777 134.75 102.766 134.587 102.766 134.421 102.766 132.502 104.321 130.947 106.24 130.947 108.159 130.947 109.715 132.502 109.715 134.421 109.715 135.161 109.484 135.846 109.09 136.409 109.595 136.868 110.03 137.404 110.377 137.997 112.662 138.164 114.63 139.478 115.706 141.366 116.839 140.487 118.263 139.964 119.808 139.964 120.379 139.964 120.933 140.036 121.462 140.17 121.992 140.036 122.546 139.964 123.117 139.964 125.729 139.964 127.992 141.459 129.097 143.639 130.709 143.803 132.153 144.538 133.221 145.639 133.489 145.606 133.761 145.59 134.037 145.59 137.149 145.59 139.765 147.71 140.519 150.585 142.781 151.363 144.495 153.317 144.932 155.717 147.846 156.444 150.004 159.079 150.004 162.218 150.004 163.112 149.829 163.965 149.512 164.745 150.24 165.817 150.666 167.112 150.666 168.506 150.666 169.355 150.508 170.167 150.22 170.914 151.513 172.136 152.32 173.867 152.32 175.786 152.32 179.487 149.32 182.487 145.619 182.487 144.582 182.487 143.6 182.252 142.724 181.831 142.072 182.042 141.377 182.156 140.656 182.156 136.955 182.156 133.955 179.156 133.955 175.455 133.955 173.397 134.883 171.555 136.343 170.326 134.883 169.097 133.955 167.255 133.955 165.197 133.955 164.217 134.165 163.286 134.543 162.447 133.24 161.549 132.27 160.202 131.857 158.629 130.851 158.283 129.953 157.704 129.228 156.957 128.96 156.99 128.688 157.006 128.412 157.006 125.8 157.006 123.537 155.512 122.431 153.332 122.101 153.298 121.777 153.24 121.462 153.16 120.933 153.295 120.379 153.366 119.808 153.366 117.312 153.366 115.135 152.002 113.982 149.979 112.991 150.748 111.778 151.244 110.456 151.356 110.824 151.908 111.038 152.571 111.038 153.284 111.038 155.203 109.483 156.758 107.564 156.758 105.784 156.758 104.317 155.42 104.113 153.696 102.479 153.662 100.988 153.043 99.8417 152.039 99.7687 152.041 99.6954 152.043 99.6218 152.043 98.6029 152.043 97.637 151.815 96.7723 151.408 96.1866 151.858 95.4535 152.125 94.6581 152.125Z" fill="#DBF6A4" fill-rule="nonzero" fill-opacity="1" transform="matrix(1 0 0 1.00358 -41.7422 -99.7175)"/></g></svg>