<svg version="1.1" xmlns="http://www.w3.org/2000/svg" xmlns:xlink="http://www.w3.org/1999/xlink" width="165.42146" height="166.55775" viewBox="0,0,165.42146,166.55775"><g transform="translate(-154.6769,-111.37788)"><g data-paper-data="{&quot;isPaintingLayer&quot;:true}" fill-rule="nonzero" stroke-linejoin="miter" stroke-miterlimit="10" stroke-dasharray="" stroke-dashoffset="0" style="mix-blend-mode: normal"><path d="M318.34837,194.65676c0,45.02715 -36.24735,81.52888 -80.96073,81.52888c-44.71338,0 -80.96073,-36.50172 -80.96073,-81.52888c0,-45.02715 36.24736,-81.52887 80.96074,-81.52887c44.71338,0 80.96073,36.50172 80.96073,81.52888z" fill="#dbf89d" stroke="#6db1b8" stroke-width="3.5" stroke-linecap="butt"/><path d="M298.70701,194.8072c0,34.5272 -27.6681,62.51701 -61.79843,62.51701c-34.13033,0 -61.79843,-27.98982 -61.79843,-62.51701c0,-34.5272 27.6681,-62.51702 61.79843,-62.51702c34.13033,0 61.79843,27.98982 61.79843,62.51702z" fill="#6ab3b4" stroke="#dbf89d" stroke-width="5" stroke-linecap="butt"/><path d="M236.93819,135.71614l-16.51859,61.21593l17.49027,54.73805l16.19469,-55.06195z" fill="none" stroke="#dbf89d" stroke-width="5" stroke-linecap="round"/><path d="M221.71518,197.13209l31.4177,-0.32389" fill="#dbf89d" stroke="#dbf89d" stroke-width="5" stroke-linecap="round"/><path d="M231.6143,149.20753c0,-2.76142 2.23858,-5 5,-5c2.76142,0 5,2.23858 5,5c0,1.18928 -0.41521,2.28158 -1.10859,3.13984c0.49675,0.77673 0.78469,1.69986 0.78469,2.69025c0,0.35478 -0.03695,0.70094 -0.10722,1.03482c0.34323,0.27044 0.6765,0.6054 0.99456,1.0113c0.18935,0.24164 0.34283,0.50783 0.47159,0.78828c0.2711,0.50878 0.45683,1.06994 0.53809,1.66436c0.47209,1.86883 2.58564,8.85343 2.66864,11.00376c0.02379,0.61646 -0.32798,1.11319 -0.7547,1.57039c2.31896,0.78109 4.59676,1.26929 3.05811,5.88522c-0.16783,0.50348 -0.45452,0.94925 -0.8156,1.3472c1.81027,0.20116 3.49085,0.69278 3.72929,1.88496l1.22962,3.28405c-0.5082,0.62835 -0.90896,1.43726 -1.32558,2.21997c0.82325,0.78506 1.32558,2.02868 1.32558,3.93402c0,1.67964 -1.31232,3.18732 -2.5,4.375c-0.8987,0.8987 -4.39812,0.57534 -5.32513,0.625c-5.64532,0.30243 -11.28374,1.20376 -16.9324,0.97168c-0.08986,-0.00369 -0.1834,-0.00589 -0.27941,-0.00768c-2.63145,-0.14495 -4.72059,-2.32466 -4.72059,-4.99232c0,-1.62714 0.77725,-3.07275 1.98072,-3.98581c0.15393,-0.14902 0.32556,-0.28022 0.51928,-0.38919c0.04756,-0.02675 0.09571,-0.05248 0.14439,-0.07722c-0.9528,-0.89117 -1.53407,-2.339 -1.53407,-4.64706c0,-2.29699 1.75028,-3.47469 4.20465,-4.01073c-1.25759,-0.9081 -2.07603,-2.38666 -2.07603,-4.05636c0,-1.80867 0.96034,-3.39304 2.39893,-4.27102c0.16531,-0.13099 0.34703,-0.24275 0.54881,-0.33102c0.42308,-0.18509 0.84932,-0.29134 1.27776,-0.34466c-0.6293,-1.58089 -0.12918,-3.34321 0.8312,-4.90126c-0.53433,-0.79571 -0.84607,-1.7534 -0.84607,-2.7839c0,-1.68173 0.83027,-3.16955 2.10327,-4.07589c-0.51085,-0.78406 -0.80769,-1.7203 -0.80769,-2.72588c0,-1.18928 0.41521,-2.28158 1.10859,-3.13984c-0.49675,-0.77673 -0.78469,-1.69986 -0.78469,-2.69025z" fill="#dbf89d" stroke="none" stroke-width="0.5" stroke-linecap="butt"/></g></g></svg>